<?xml version="1.0" standalone="no"?><!DOCTYPE svg PUBLIC "-//W3C//DTD SVG 1.1//EN" "http://www.w3.org/Graphics/SVG/1.1/DTD/svg11.dtd"><svg t="1755748404640" class="icon" viewBox="0 0 1024 1024" version="1.1" xmlns="http://www.w3.org/2000/svg" p-id="5064" xmlns:xlink="http://www.w3.org/1999/xlink" width="200" height="200"><path d="M513.792 508.5184m-450.816 0a450.816 450.816 0 1 0 901.632 0 450.816 450.816 0 1 0-901.632 0Z" fill="#FF9552" p-id="5065"></path><path d="M623.6672 810.9056l-83.2 20.0192a17.408 17.408 0 0 1-20.7872-21.9648l23.5008-79.0016a17.3568 17.3568 0 0 1 4.4032-7.3216l218.0608-218.0608a17.408 17.408 0 0 1 24.6272 0l59.3408 59.2896a17.4592 17.4592 0 0 1 0 24.6784l-217.7024 217.7024a17.664 17.664 0 0 1-8.2432 4.6592zM699.5968 202.8032H338.3296A72.1408 72.1408 0 0 0 266.24 274.944v449.1264a72.1408 72.1408 0 0 0 72.1408 72.1408h143.36l29.184-100.352 260.6592-251.904v-168.96a72.1408 72.1408 0 0 0-71.9872-72.192z m-198.2976 417.1264h-103.936a35.84 35.84 0 0 1 0-71.68h103.936a35.84 35.84 0 0 1 0 71.68z m139.2128-118.9888H397.3632a35.84 35.84 0 1 1 0-71.68h243.1488a35.84 35.84 0 0 1 0 71.68z m0-110.4384H397.3632a35.84 35.84 0 0 1 0-71.68h243.1488a35.84 35.84 0 1 1 0 71.68z" fill="#FFFFFF" p-id="5066"></path></svg>