<?xml version="1.0" standalone="no"?><!DOCTYPE svg PUBLIC "-//W3C//DTD SVG 1.1//EN" "http://www.w3.org/Graphics/SVG/1.1/DTD/svg11.dtd"><svg t="1755673647098" class="icon" viewBox="0 0 1062 1024" version="1.1" xmlns="http://www.w3.org/2000/svg" p-id="9802" xmlns:xlink="http://www.w3.org/1999/xlink" width="207.421875" height="200"><path d="M346.148571 101.485714h11.337143v41.874286h24.137143v10.422857h-24.137143V201.142857l11.154286-3.657143 12.8-3.84v10.971429c-7.314286 2.011429-15.36 4.571429-24.137143 7.314286v68.205714c0 15.177143-6.4 22.857143-21.394286 22.674286h-15.36c0-3.84-1.28-7.862857-2.194285-11.885715h15.725714c8.411429 0 12.251429-3.474286 11.885714-11.885714V215.771429l-12.8 4.205714-14.445714 4.754286-1.828571-11.885715 17.188571-4.754285 11.885714-3.474286V153.782857h-26.514285v-10.422857h26.697142z m100.754286 0h11.337143V142.628571h54.857143v161.462858h-11.337143V292.571429h-98.742857v11.702857h-11.337143V142.628571h54.857143z m-43.702857 51.931429v56.868571h43.702857V153.417143z m0 67.291428v60.891429h43.702857v-60.891429z m98.742857-67.291428h-43.702857v56.868571h43.702857z m-43.702857 67.291428v60.891429h43.702857v-60.891429zM537.417143 187.062857c20.48-8.777143 38.948571-17.188571 54.857143-25.417143V100.388571h11.52v117.76h-11.52V173.531429c-15.36 7.314286-32.365714 15.725714-51.017143 25.417142z m98.194286 27.611429h11.702857a136.228571 136.228571 0 0 1-2.377143 16.091428h96.182857v10.605715h-91.428571q22.308571 42.605714 92.708571 51.748571a53.394286 53.394286 0 0 0-6.948571 11.52q-74.057143-13.165714-94.537143-57.051429-11.52 42.057143-96.548572 59.611429a73.142857 73.142857 0 0 0-6.582857-11.154286q84.48-16.274286 93.257143-54.857143h-90.331429v-10.605714h92.708572a107.154286 107.154286 0 0 0 2.194286-15.908571z m-91.428572-88.685715l8.411429-6.948571C566.857143 132.388571 577.828571 142.994286 585.142857 150.308571l-9.325714 7.862858a905.142857 905.142857 0 0 0-31.268572-32.182858z m80.457143 39.862858a93.988571 93.988571 0 0 0-8.96-8.045715 187.977143 187.977143 0 0 0 49.92-58.331428l11.702857 3.474285a217.782857 217.782857 0 0 1-14.628571 21.942858H731.428571v10.422857q-27.977143 56.137143-105.325714 74.788571a78.08 78.08 0 0 0-6.034286-10.605714c48.822857-11.52 81.92-32.914286 98.925715-64.365714H654.628571a44.982857 44.982857 0 0 1-4.937142 6.034285l-2.011429 2.377143c7.497143 5.668571 16.64 13.165714 27.062857 21.942857l-9.142857 8.045715c-5.485714-5.485714-13.714286-12.982857-25.051429-22.491429-6.582857 6.582857-11.702857 11.52-15.542857 14.811429z" fill="#FC3F3F" p-id="9803"></path><path d="M20.48 1024C10.24 1024 0 1019.977143 0 1011.931429V443.428571c0-24.685714 28.342857-9.691429 31.634286-8.228571 32.548571 13.897143 118.491429 43.52 118.491428 43.52V11.702857C150.125714 3.657143 160.365714 0 170.605714 0h720.64c10.057143 0 20.48 3.657143 20.48 11.702857v465.005714s85.942857-29.988571 118.125715-43.52c18.285714-7.314286 32-7.497143 32 2.925715v575.817143c0 8.045714-10.422857 11.702857-20.48 11.702857z m7.497143-23.405714h1009.188571l1.462857-540.891429s-270.628571 104.228571-499.382857 104.228572c-243.382857 0-512-97.828571-512-97.828572zM440.868571 365.714286c10.24 0 20.48 3.474286 20.48 11.52v160.182857l52.114286 3.108571a359.131429 359.131429 0 0 0 39.68 0l47.36-2.377143v-160.365714c0-8.045714 10.24-11.52 20.48-11.52s20.48 3.474286 20.48 11.52v157.622857a1459.017143 1459.017143 0 0 0 222.171429-42.788571l25.051428-7.68V30.354286a12.434286 12.434286 0 0 0-12.251428-12.8l-692.114286 2.56a12.068571 12.068571 0 0 0-11.702857 12.251428v451.657143l25.6 8.594286C274.285714 514.377143 420.571429 535.405714 420.571429 535.405714v-157.622857c0-8.045714 10.057143-12.068571 20.297142-12.068571z" fill="#FC3F3F" p-id="9804"></path><path d="M530.285714 870.948571c-4.571429 0-9.508571-2.377143-9.508571-7.497142v-34.194286H475.428571c-4.754286 0-9.508571-2.377143-9.508571-7.497143s4.754286-7.497143 9.508571-7.497143h46.08V773.485714H475.428571c-4.754286 0-9.508571-2.194286-9.508571-7.314285s4.754286-7.497143 9.508571-7.497143h36.571429l-43.885714-43.885715a5.302857 5.302857 0 0 1 0-8.594285 10.24 10.24 0 0 1 14.628571 0l47.542857 48.274285 48.457143-48.274285a10.24 10.24 0 0 1 7.314286-3.108572 9.508571 9.508571 0 0 1 7.131428 3.108572 5.12 5.12 0 0 1 0 8.594285l-43.702857 43.885715h36.571429c4.754286 0 9.508571 2.377143 9.508571 7.497143s-4.754286 7.314286-9.508571 7.314285h-45.714286v40.777143h46.262857c4.754286 0 9.508571 2.377143 9.508572 7.497143s-4.754286 7.497143-9.508572 7.497143h-46.262857v34.194286c0 5.12-4.754286 7.497143-10.057143 7.497142z" fill="#FC3F3F" p-id="9805"></path></svg>