<svg width="24.000000" height="24.000000" viewBox="0 0 24 24" fill="none" xmlns="http://www.w3.org/2000/svg" xmlns:xlink="http://www.w3.org/1999/xlink">
	<desc>
			Created with Pixso.
	</desc>
	<defs>
		<clipPath id="clip83_11421">
			<rect width="24.000000" height="24.000000" fill="white" fill-opacity="0"/>
		</clipPath>
	</defs>
	<g opacity="0.500000">
		<rect width="24.000000" height="24.000000" fill="#FFFFFF" fill-opacity="1.000000"/>
		<g clip-path="url(#clip83_11421)">
			<path d="M0.75 11.99C0.75 10.23 0.74 8.47 0.75 6.71C0.75 5.86 0.85 5.02 1.06 4.19C1.52 2.45 2.66 1.41 4.4 1.01C5.27 0.82 6.16 0.73 7.06 0.75C10.43 0.75 13.8 0.75 17.17 0.75C18.02 0.74 18.87 0.84 19.7 1.04C21.49 1.48 22.57 2.61 22.98 4.4C23.17 5.25 23.25 6.11 23.25 6.98C23.25 10.38 23.25 13.79 23.25 17.2C23.25 18.04 23.15 18.88 22.96 19.7C22.52 21.5 21.37 22.57 19.58 22.98C18.71 23.17 17.82 23.26 16.92 23.24C13.57 23.24 10.21 23.24 6.86 23.24C6 23.25 5.14 23.15 4.31 22.96C2.5 22.52 1.42 21.38 1.01 19.58C0.8 18.66 0.75 17.75 0.75 16.82C0.75 15.21 0.75 13.6 0.75 11.99Z" fill="#FFFFFF" fill-opacity="0" fill-rule="nonzero"/>
			<path d="M0.75 6.71C0.75 5.86 0.85 5.02 1.06 4.19C1.52 2.45 2.66 1.41 4.4 1.01C5.27 0.82 6.16 0.73 7.06 0.75C10.43 0.75 13.8 0.75 17.17 0.75C18.02 0.74 18.87 0.84 19.7 1.04C21.49 1.48 22.57 2.61 22.98 4.4C23.17 5.25 23.25 6.11 23.25 6.98C23.25 10.38 23.25 13.79 23.25 17.2C23.25 18.04 23.15 18.88 22.96 19.7C22.52 21.5 21.37 22.57 19.58 22.98C18.71 23.17 17.82 23.26 16.92 23.24C13.57 23.24 10.21 23.24 6.86 23.24C6 23.25 5.14 23.15 4.31 22.96C2.5 22.52 1.42 21.38 1.01 19.58C0.8 18.66 0.75 17.75 0.75 16.82C0.75 15.21 0.75 13.6 0.75 11.99C0.75 10.23 0.74 8.47 0.75 6.71Z" stroke="#FFFFFF" stroke-opacity="0" stroke-width="1.000000"/>
			<path d="M0.75 11.99C0.75 10.23 0.74 8.47 0.75 6.71C0.75 5.86 0.85 5.02 1.06 4.19C1.52 2.45 2.66 1.41 4.4 1.01C5.27 0.82 6.16 0.73 7.06 0.75C10.43 0.75 13.8 0.75 17.17 0.75C18.02 0.74 18.87 0.84 19.7 1.04C21.49 1.48 22.57 2.61 22.98 4.4C23.17 5.25 23.25 6.11 23.25 6.98C23.25 10.38 23.25 13.79 23.25 17.2C23.25 18.04 23.15 18.88 22.96 19.7C22.52 21.5 21.37 22.57 19.58 22.98C18.71 23.17 17.82 23.26 16.92 23.24C13.57 23.24 10.21 23.24 6.86 23.24C6 23.25 5.14 23.15 4.31 22.96C2.5 22.52 1.42 21.38 1.01 19.58C0.8 18.66 0.75 17.75 0.75 16.82C0.75 15.21 0.75 13.6 0.75 11.99Z" fill="#000000" fill-opacity="0" fill-rule="nonzero"/>
			<path d="M0.75 6.71C0.75 5.86 0.85 5.02 1.06 4.19C1.52 2.45 2.66 1.41 4.4 1.01C5.27 0.82 6.16 0.73 7.06 0.75C10.43 0.75 13.8 0.75 17.17 0.75C18.02 0.74 18.87 0.84 19.7 1.04C21.49 1.48 22.57 2.61 22.98 4.4C23.17 5.25 23.25 6.11 23.25 6.98C23.25 10.38 23.25 13.79 23.25 17.2C23.25 18.04 23.15 18.88 22.96 19.7C22.52 21.5 21.37 22.57 19.58 22.98C18.71 23.17 17.82 23.26 16.92 23.24C13.57 23.24 10.21 23.24 6.86 23.24C6 23.25 5.14 23.15 4.31 22.96C2.5 22.52 1.42 21.38 1.01 19.58C0.8 18.66 0.75 17.75 0.75 16.82C0.75 15.21 0.75 13.6 0.75 11.99C0.75 10.23 0.74 8.47 0.75 6.71Z" stroke="#FFFFFF" stroke-opacity="0" stroke-width="1.000000"/>
			<circle cx="12.000000" cy="12.000000" r="12.000000" fill="#FFFFFF" fill-opacity="0"/>
			<circle cx="12.000000" cy="12.000000" r="12.000000" stroke="#000000" stroke-opacity="0" stroke-width="1.000000"/>
			<path d="M15.11 22.8L9.07 22.8C8.49 22.8 7.99 22.38 7.89 21.8L6.18 11.89C7.58 11.08 8.88 10.68 10.08 10.71C11.89 10.75 12.5 11.86 15.09 11.8C16.14 11.78 17.18 11.38 18.22 10.59L16.29 21.8C16.19 22.38 15.7 22.8 15.11 22.8Z" fill="#71a336" fill-opacity="1.000000" fill-rule="evenodd"/>
			<path d="M9.07 22.8C8.49 22.8 7.99 22.38 7.89 21.8L6.18 11.89C7.58 11.08 8.88 10.68 10.08 10.71C11.89 10.75 12.5 11.86 15.09 11.8C16.14 11.78 17.18 11.38 18.22 10.59L16.29 21.8C16.19 22.38 15.7 22.8 15.11 22.8L9.07 22.8Z" stroke="#71a336" stroke-opacity="1.000000" stroke-width="1.000000" stroke-linejoin="round"/>
			<path d="" fill="#000000" fill-opacity="0" fill-rule="nonzero"/>
			<path d="M19.11 5.27L16.29 21.8C16.19 22.38 15.69 22.8 15.11 22.8L9.07 22.8C8.49 22.8 7.99 22.38 7.89 21.8L5.07 5.26" stroke="#FFFFFF" stroke-opacity="0" stroke-width="1.000000" stroke-linejoin="round" stroke-linecap="round"/>
			<line x1="4.035156" y1="5.250000" x2="20.164062" y2="5.250000" stroke="#FFFFFF" stroke-opacity="0" stroke-width="1.000000"/>
			<path d="" fill="#000000" fill-opacity="0" fill-rule="nonzero"/>
			<path d="M12.09 5.21C12.19 3.83 12.5 2.85 13 2.28C13.51 1.72 14.4 1.36 15.67 1.21" stroke="#FFFFFF" stroke-opacity="0" stroke-width="1.000000" stroke-linejoin="round" stroke-linecap="round"/>
			<path d="M15.64 0.91C15.8 0.9 15.95 1.01 15.97 1.18C15.99 1.34 15.87 1.49 15.71 1.51C14.5 1.65 13.68 1.98 13.23 2.48C12.77 2.99 12.49 3.91 12.4 5.24L12.42 4.95L20.16 4.95C20.3 4.95 20.42 5.04 20.45 5.18L20.46 5.25C20.46 5.41 20.32 5.54 20.16 5.54L19.36 5.54L16.59 21.85C16.48 22.52 15.93 23.02 15.27 23.09L15.11 23.1L9.07 23.1C8.34 23.1 7.72 22.57 7.59 21.85L4.82 5.54L4.03 5.54C3.89 5.54 3.77 5.45 3.74 5.31L3.73 5.25C3.73 5.08 3.86 4.95 4.03 4.95L11.82 4.95L11.82 4.87C11.94 3.69 12.21 2.82 12.66 2.23L12.78 2.08C13.34 1.45 14.3 1.07 15.64 0.91ZM18.76 5.54L5.43 5.54L8.19 21.75C8.25 22.14 8.56 22.44 8.94 22.49L9.07 22.5L15.11 22.5C15.55 22.5 15.92 22.18 16 21.75L18.76 5.54Z" fill="#71a336" fill-opacity="1.000000" fill-rule="nonzero"/>
			<path d="M15.97 1.18C15.99 1.34 15.87 1.49 15.71 1.51C14.5 1.65 13.68 1.98 13.23 2.48C12.77 2.99 12.49 3.91 12.4 5.24L12.42 4.95L20.16 4.95C20.3 4.95 20.42 5.04 20.45 5.18L20.46 5.25C20.46 5.41 20.32 5.54 20.16 5.54L19.36 5.54L16.59 21.85C16.48 22.52 15.93 23.02 15.27 23.09L15.11 23.1L9.07 23.1C8.34 23.1 7.72 22.57 7.59 21.85L4.82 5.54L4.03 5.54C3.89 5.54 3.77 5.45 3.74 5.31L3.73 5.25C3.73 5.08 3.86 4.95 4.03 4.95L11.82 4.95L11.82 4.87C11.94 3.69 12.21 2.82 12.66 2.23L12.78 2.08C13.34 1.45 14.3 1.07 15.64 0.91C15.8 0.9 15.95 1.01 15.97 1.18ZM5.43 5.54L8.19 21.75C8.25 22.14 8.56 22.44 8.94 22.49L9.07 22.5L15.11 22.5C15.55 22.5 15.92 22.18 16 21.75L18.76 5.54L5.43 5.54Z" stroke="#71a336" stroke-opacity="1.000000" stroke-width="1.000000" stroke-linejoin="round"/>
		</g>
	</g>
</svg>
