<?xml version="1.0" standalone="no"?><!DOCTYPE svg PUBLIC "-//W3C//DTD SVG 1.1//EN" "http://www.w3.org/Graphics/SVG/1.1/DTD/svg11.dtd"><svg t="1755673623907" class="icon" viewBox="0 0 1024 1024" version="1.1" xmlns="http://www.w3.org/2000/svg" p-id="8755" xmlns:xlink="http://www.w3.org/1999/xlink" width="200" height="200"><path d="M897.185244 249.924119l-48.207955 0c1.00284-2.118244 1.964748-4.308119 2.876514-6.579859 4.972245-12.412704 10.652618-31.661094 9.42465-52.863998-1.534959-26.329668-13.232372-49.435922-33.840736-66.821895-22.574135-19.033495-47.420009-28.284183-75.939553-28.284183-5.658883 0-11.542894 0.378623-17.488303 1.125637-47.471175 5.935176-90.296539 23.116487-130.932028 52.516074-28.458145 20.578688-56.466036 47.092551-91.074252 86.500073-34.618449-39.407522-62.626339-65.921385-91.074252-86.500073-40.645722-29.399587-83.471087-46.580898-130.921795-52.516074-5.955642-0.747014-11.849886-1.125637-17.508769-1.125637-28.519544 0-53.355185 9.250688-75.939553 28.294416-20.599154 17.375739-32.305777 40.481993-33.830503 66.811662-1.238201 21.202904 4.441149 40.451294 9.414417 52.863998 0.910743 2.27174 1.87265 4.461615 2.87549 6.579859l-48.197722 0c-33.912367 0-61.398372 27.486004-61.398372 61.398372l0 139.343605c0 33.902134 27.486004 61.398372 61.398372 61.398372l26.503631 0c-0.521886 3.202948-0.787946 6.497994-0.787946 9.854439l0 333.945745c0 33.912367 27.486004 61.398372 61.398372 61.398372l596.127026 0c33.912367 0 61.398372-27.486004 61.398372-61.398372l0-333.945745c0-3.356444-0.267083-6.65149-0.788969-9.854439l26.513864 0c33.902134 0 61.398372-27.496238 61.398372-61.398372l0-139.343605C958.583616 277.410124 931.087379 249.924119 897.185244 249.924119zM741.642702 157.417239c3.438309-0.429789 6.743588-0.644683 9.854439-0.644683 13.804401 0 25.009603 4.256954 36.348859 13.824867 5.003967 4.216022 20.199041 17.038048 7.018857 49.886177-6.211469 15.492856-14.172791 24.886807-72.306816 24.886807l-136.314619 0C635.597481 194.48139 680.775426 165.04087 741.642702 157.417239zM236.149906 170.597423c11.338233-9.567913 22.553669-13.824867 36.347836-13.824867 3.110851 0 6.426363 0.214894 9.864672 0.644683 60.866253 7.623631 106.034988 37.064151 155.399279 87.953168l-136.324852 0c-58.134025 0-66.095347-9.393951-72.306816-24.886807C215.960075 187.625238 231.156172 174.813444 236.149906 170.597423zM126.819872 450.666096l0-139.343605 353.74672 0 0 139.343605L126.819872 450.666096zM213.933929 521.918907l266.632663 0 0 333.945745-266.632663 0L213.933929 521.918907zM810.060955 855.864652l-268.095991 0 0-333.945745 268.095991 0L810.060955 855.864652zM897.185244 450.666096l-355.220281 0 0-139.343605 355.220281 0L897.185244 450.666096z" fill="#d81e06" p-id="8756"></path></svg>