<?xml version="1.0" standalone="no"?><!DOCTYPE svg PUBLIC "-//W3C//DTD SVG 1.1//EN" "http://www.w3.org/Graphics/SVG/1.1/DTD/svg11.dtd"><svg t="1756001909579" class="icon" viewBox="0 0 1024 1024" version="1.1" xmlns="http://www.w3.org/2000/svg" p-id="6626" xmlns:xlink="http://www.w3.org/1999/xlink" width="200" height="200"><path d="M511.627005 958.568778c-246.246357 0-446.565708-200.318328-446.565708-446.571848 0-246.24431 200.319351-446.563662 446.565708-446.563662 246.251474 0 446.568778 200.319351 446.568778 446.563662C958.195783 758.25045 757.877455 958.568778 511.627005 958.568778L511.627005 958.568778zM511.627005 129.2272c-211.066113 0-382.770753 171.70464-382.770753 382.768707 0 211.073276 171.70464 382.776893 382.770753 382.776893 211.07123 0 382.774847-171.703617 382.774847-382.776893C894.400828 300.932864 722.697211 129.2272 511.627005 129.2272L511.627005 129.2272zM511.627005 129.2272" fill="#272636" p-id="6627"></path><path d="M511.893065 831.324746c-26.409486 0-47.843658-21.433148-47.843658-47.843658s21.434172-47.843658 47.843658-47.843658c26.414603 0 47.850821 21.433148 47.850821 47.843658S538.308691 831.324746 511.893065 831.324746L511.893065 831.324746z" fill="#272636" p-id="6628"></path><path d="M600.18904 505.204224c-27.751041 27.723412-56.394405 56.367799-56.394405 82.10395l0 53.943586c0 17.605983-14.290471 31.894408-31.900547 31.894408-17.603937 0-31.894408-14.288424-31.894408-31.894408l0-53.943586c0-52.18043 39.872103-92.053556 75.086116-127.237893 25.806759-25.805736 52.502771-52.473095 52.502771-73.746608 0-53.17406-42.932812-96.42512-95.694479-96.42512-53.650921 0-95.688339 41.401945-95.688339 94.258781 0 17.60496-14.290471 31.894408-31.900547 31.894408-17.609053 0-31.899524-14.289448-31.899524-31.894408 0-87.147826 71.547523-158.057829 159.487388-158.057829 87.944981 0 159.488411 71.868841 159.488411 160.224168C671.382499 434.040441 635.180995 470.213291 600.18904 505.204224L600.18904 505.204224z" fill="#272636" p-id="6629"></path><path d="M600.18904 505.204224" fill="#272636" p-id="6630"></path></svg>