<svg width="24.000000" height="24.000000" viewBox="0 0 24 24" fill="none" xmlns="http://www.w3.org/2000/svg" xmlns:xlink="http://www.w3.org/1999/xlink">
	<desc>
			Created with Pixso.
	</desc>
	<defs>
		<clipPath id="clip83_11401">
			<rect width="24.000000" height="24.000000" fill="white" fill-opacity="0"/>
		</clipPath>
	</defs>
	<g clip-path="url(#clip83_11401)">
		<g opacity="0.000000">
			<rect width="24.000000" height="24.000000" fill="#8c8c8c" fill-opacity="1.000000"/>
		</g>
		<mask id="mask83_11405" mask-type="alpha" maskUnits="userSpaceOnUse" x="0.000000" y="0.000000" width="24.000000" height="24.000000">
			<rect width="24.000000" height="24.000000" fill="#FFFFFF" fill-opacity="1.000000"/>
			<path d="M9.01 20.73L9.01 16.18C9.01 15.42 9.3 14.78 9.88 14.25C10.46 13.72 11.16 13.46 12 13.46C12.83 13.46 13.53 13.72 14.1 14.25C14.68 14.78 14.98 15.42 14.98 16.18L14.98 20.73L9.01 20.73Z" fill="#8c8c8c" fill-opacity="1.000000" fill-rule="nonzero"/>
		</mask>
		<g mask="url(#mask83_11405)">
			<path d="M20.37 12.06C18.55 10.33 16.72 8.59 14.87 6.85L13.06 5.16C12.75 4.87 12.39 4.72 11.99 4.72C11.58 4.72 11.22 4.87 10.91 5.16L3.65 12.06C3.52 12.19 3.42 12.33 3.35 12.5C3.29 12.66 3.25 12.81 3.25 12.98L3.25 19.98C3.25 20.41 3.35 20.79 3.56 21.12C3.75 21.47 4.03 21.75 4.37 21.95C4.72 22.14 5.1 22.25 5.51 22.25L18.5 22.25C18.9 22.25 19.27 22.14 19.61 21.95C19.96 21.75 20.24 21.47 20.43 21.12C20.64 20.79 20.74 20.41 20.74 19.98L20.74 12.96C20.74 12.78 20.7 12.62 20.64 12.47C20.57 12.31 20.48 12.18 20.37 12.06Z" fill="#8c8c8c" fill-opacity="1.000000" fill-rule="nonzero"/>
			<path d="M1.49 11.47C1.61 11.59 1.79 11.66 2.01 11.68C2.24 11.68 2.41 11.62 2.53 11.5L10.6 3.83C11 3.45 11.47 3.26 12 3.26C12.54 3.26 13.01 3.45 13.41 3.83L21.48 11.47C21.62 11.61 21.8 11.68 22 11.68C22.21 11.68 22.39 11.6 22.53 11.45C22.66 11.3 22.73 11.12 22.73 10.91C22.73 10.71 22.65 10.53 22.5 10.39L14.44 2.76C14 2.32 13.48 2.03 12.88 1.87C12.29 1.73 11.7 1.73 11.1 1.87C10.51 2.03 9.99 2.32 9.54 2.76L1.5 10.39C1.34 10.53 1.26 10.71 1.26 10.91C1.26 11.12 1.34 11.31 1.49 11.47Z" fill="#8c8c8c" fill-opacity="0.500000" fill-rule="nonzero"/>
		</g>
	</g>
</svg>
