<svg width="24.000000" height="24.000000" viewBox="0 0 24 24" fill="none" xmlns="http://www.w3.org/2000/svg" xmlns:xlink="http://www.w3.org/1999/xlink">
	<desc>
			Created with Pixso.
	</desc>
	<defs>
		<clipPath id="clip83_11435">
			<rect width="24.000000" height="24.000000" fill="white" fill-opacity="0"/>
		</clipPath>
	</defs>
	<g opacity="0.500000">
		<g clip-path="url(#clip83_11435)">
			<g opacity="0.000000">
				<rect width="24.000000" height="24.000000" fill="#000000" fill-opacity="1.000000"/>
			</g>
			<path d="M12 10.97C12.84 10.97 13.62 10.75 14.33 10.33C15.05 9.91 15.61 9.33 16.04 8.62C16.46 7.89 16.67 7.11 16.67 6.26C16.67 5.41 16.46 4.62 16.04 3.91C15.61 3.18 15.05 2.62 14.33 2.2C13.62 1.77 12.84 1.56 12 1.56C11.13 1.56 10.33 1.77 9.61 2.2C8.9 2.62 8.33 3.18 7.91 3.91C7.5 4.62 7.3 5.41 7.3 6.26C7.3 7.11 7.5 7.89 7.91 8.62C8.33 9.33 8.9 9.91 9.61 10.33C10.33 10.75 11.13 10.97 12 10.97ZM18.74 22.06C19.19 22.06 19.6 21.95 19.97 21.73C20.33 21.51 20.62 21.22 20.83 20.85C21.06 20.48 21.16 20.07 21.16 19.62C21.16 18.27 20.75 17.02 19.91 15.87C19.08 14.73 18.02 13.82 16.73 13.16C15.42 12.5 14.11 12.16 12.79 12.16L11.17 12.16C9.85 12.16 8.54 12.5 7.25 13.16C5.94 13.82 4.89 14.73 4.07 15.87C3.24 17.02 2.83 18.27 2.83 19.62C2.83 20.07 2.93 20.48 3.16 20.85C3.37 21.22 3.66 21.51 4.02 21.73C4.39 21.95 4.79 22.06 5.23 22.06L18.74 22.06Z" fill="#71a336" fill-opacity="0.901961" fill-rule="nonzero"/>
		</g>
	</g>
</svg>
