<svg width="24.000000" height="24.000000" viewBox="0 0 24 24" fill="none" xmlns="http://www.w3.org/2000/svg" xmlns:xlink="http://www.w3.org/1999/xlink">
	<desc>
			Created with Pixso.
	</desc>
	<defs>
		<clipPath id="clip83_11454">
			<rect width="24.000000" height="24.000000" fill="white" fill-opacity="0"/>
		</clipPath>
	</defs>
	<g opacity="0.500000">
		<g clip-path="url(#clip83_11454)">
			<g opacity="0.000000">
				<rect width="24.000000" height="24.000000" fill="#71a336" fill-opacity="1.000000"/>
			</g>
			<path d="M6.22 1C5.64 1 5.1 1.15 4.61 1.44C4.11 1.75 3.71 2.14 3.41 2.63C3.12 3.13 2.98 3.66 2.98 4.25L2.98 19.75C2.98 20.34 3.12 20.88 3.41 21.37C3.71 21.87 4.11 22.27 4.61 22.55C5.1 22.84 5.64 22.98 6.22 22.98L17.75 22.98C18.35 22.98 18.89 22.84 19.39 22.55C19.89 22.27 20.28 21.87 20.58 21.37C20.87 20.88 21.01 20.34 21.01 19.75L21.01 7.25L14.75 1L6.22 1ZM7.5 12C7.31 12 7.14 11.92 7 11.77C6.84 11.63 6.76 11.46 6.76 11.25C6.76 11.04 6.84 10.86 7 10.71C7.14 10.56 7.31 10.48 7.5 10.48L11.51 10.48C11.72 10.48 11.9 10.56 12.06 10.71C12.21 10.86 12.29 11.04 12.29 11.25C12.29 11.46 12.21 11.63 12.06 11.77C11.9 11.92 11.72 12 11.51 12L7.5 12ZM7.5 16.25C7.31 16.25 7.14 16.17 7 16.02C6.84 15.88 6.76 15.71 6.76 15.5C6.76 15.29 6.84 15.11 7 14.98C7.14 14.83 7.31 14.75 7.5 14.75L16.49 14.75C16.69 14.75 16.87 14.83 17.01 14.98C17.16 15.11 17.23 15.29 17.23 15.5C17.23 15.71 17.16 15.88 17.01 16.02C16.87 16.17 16.69 16.25 16.49 16.25L7.5 16.25ZM15.48 7.25C15.27 7.25 15.09 7.17 14.95 7.01C14.81 6.86 14.74 6.68 14.74 6.47L14.74 3.09L18.89 7.25L15.48 7.25Z" fill="#71a336" fill-opacity="0.901961" fill-rule="nonzero"/>
		</g>
	</g>
</svg>
