<?xml version="1.0" standalone="no"?><!DOCTYPE svg PUBLIC "-//W3C//DTD SVG 1.1//EN" "http://www.w3.org/Graphics/SVG/1.1/DTD/svg11.dtd"><svg t="1756001961790" class="icon" viewBox="0 0 1024 1024" version="1.1" xmlns="http://www.w3.org/2000/svg" p-id="7624" xmlns:xlink="http://www.w3.org/1999/xlink" width="200" height="200"><path d="M493.421714 0.438857c124.976762 0 225.865143 104.838095 229.229715 234.691048l0.097523 6.729143v67.779047h159.744v666.038857H97.52381V309.638095h166.473142V241.859048C264.045714 108.982857 366.201905 0.438857 493.470476 0.438857z m317.68381 380.537905H168.911238v523.312762h642.194286V380.976762z m-190.268953 118.979048v261.607619H359.18019v-261.656381h261.656381z m-71.387428 71.338666H430.567619v118.930286h118.979048v-118.979048zM493.372952 71.777524c-84.943238 0-155.014095 72.557714-157.891047 164.181333l-0.097524 5.851429V309.638095h315.977143V241.859048c0-94.403048-71.192381-170.081524-157.988572-170.081524z" fill="#213543" p-id="7625"></path></svg>