<?xml version="1.0" standalone="no"?><!DOCTYPE svg PUBLIC "-//W3C//DTD SVG 1.1//EN" "http://www.w3.org/Graphics/SVG/1.1/DTD/svg11.dtd"><svg t="1755673563463" class="icon" viewBox="0 0 1024 1024" version="1.1" xmlns="http://www.w3.org/2000/svg" p-id="6497" xmlns:xlink="http://www.w3.org/1999/xlink" width="200" height="200"><path d="M251.205818 407.272727c-2.606545 0-4.561455 0-7.214545 0.651637a36.026182 36.026182 0 0 0-28.206546 42.635636l105.658182 518.562909a35.84 35.84 0 0 0 35.467636 28.904727h340.712728a35.84 35.84 0 0 0 35.374545-28.858181L838.749091 450.56a36.445091 36.445091 0 0 0-35.467636-43.287273H251.252364z" fill="#E9B7D4" p-id="6498"></path><path d="M697.576727 1014.458182h-340.712727a52.130909 52.130909 0 0 1-51.2-42.030546L200.052364 453.864727a51.991273 51.991273 0 0 1 40.727272-61.719272c3.258182-0.651636 7.214545-1.303273 10.472728-1.303273h551.424c13.777455 0 26.903273 5.259636 37.376 15.080727a52.037818 52.037818 0 0 1 13.824 47.941818l-105.658182 518.562909c-4.002909 24.296727-25.6 42.030545-50.594909 42.030546zM251.205818 423.656727c-1.303273 0-2.606545 0-3.909818 0.651637a18.944 18.944 0 0 0-12.474182 8.564363c-2.653091 4.561455-3.956364 9.821091-2.653091 15.080728L337.92 966.516364a19.595636 19.595636 0 0 0 19.037091 15.732363h340.712727a19.083636 19.083636 0 0 0 18.990546-15.732363l105.658181-518.562909c0-1.303273 0.698182-2.606545 0.698182-3.956364a17.873455 17.873455 0 0 0-5.911272-13.777455 18.897455 18.897455 0 0 0-13.777455-5.911272l-552.029091-0.651637z" fill="#222222" p-id="6499"></path><path d="M504.599273 591.685818a36.677818 36.677818 0 0 1-36.770909-36.770909c0-7.168 5.911273-13.079273 13.125818-13.079273 7.214545 0 13.125818 5.911273 13.125818 13.125819 0 5.911273 4.654545 10.472727 10.519273 10.472727a10.379636 10.379636 0 0 0 10.519272-10.472727c0-7.214545 5.911273-13.125818 13.125819-13.125819 7.214545 0 13.125818 5.911273 13.125818 13.125819 0 20.340364-16.430545 36.770909-36.770909 36.770909z" fill="#343434" p-id="6500"></path><path d="M550.539636 591.685818a36.677818 36.677818 0 0 1-36.770909-36.770909 13.172364 13.172364 0 0 1 26.251637 0c0 5.957818 4.654545 10.519273 10.519272 10.519273a10.379636 10.379636 0 0 0 10.519273-10.472727c0-7.214545 5.911273-13.125818 13.125818-13.125819 7.214545 0 13.125818 5.911273 13.125818 13.125819 0 20.340364-16.430545 36.770909-36.770909 36.770909z" fill="#343434" p-id="6501"></path><path d="M669.323636 614.027636h-50.501818a13.172364 13.172364 0 0 1-13.125818-13.125818c0-7.214545 5.911273-13.125818 13.125818-13.125818h50.548364c7.214545 0 13.125818 5.911273 13.125818 13.125818a13.172364 13.172364 0 0 1-13.125818 13.125818z" fill="#FF9596" p-id="6502"></path><path d="M666.065455 558.871273a13.172364 13.172364 0 0 1-13.125819-13.125818 10.379636 10.379636 0 0 0-10.472727-10.472728 10.379636 10.379636 0 0 0-10.519273 10.472728 13.172364 13.172364 0 0 1-13.125818 13.125818 13.172364 13.172364 0 0 1-13.125818-13.125818c0-20.340364 16.384-36.770909 36.770909-36.77091 20.340364 0 36.770909 16.430545 36.770909 36.77091a13.172364 13.172364 0 0 1-13.172363 13.125818z" fill="#282829" p-id="6503"></path><path d="M439.621818 614.027636H389.073455a13.172364 13.172364 0 0 1-13.125819-13.125818c0-7.214545 5.911273-13.125818 13.125819-13.125818h50.548363c7.214545 0 13.125818 5.911273 13.125818 13.125818a13.172364 13.172364 0 0 1-13.125818 13.125818z" fill="#FF9596" p-id="6504"></path><path d="M436.317091 558.871273a13.172364 13.172364 0 0 1-13.125818-13.125818 10.379636 10.379636 0 0 0-10.472728-10.472728 10.379636 10.379636 0 0 0-10.519272 10.472728 13.172364 13.172364 0 0 1-13.125818 13.125818 13.172364 13.172364 0 0 1-13.125819-13.125818c0-20.340364 16.384-36.770909 36.770909-36.77091 20.340364 0 36.770909 16.430545 36.77091 36.77091a13.172364 13.172364 0 0 1-13.172364 13.125818z" fill="#2F2F2F" p-id="6505"></path><path d="M263.028364 644.189091a36.165818 36.165818 0 0 0-34.117819 45.940364l43.985455 158.906181a35.84 35.84 0 0 0 34.769455 26.251637l434.548363 2.606545a35.84 35.84 0 0 0 34.816-26.903273l43.938909-164.119272c0.698182-3.258182 1.349818-6.516364 1.349818-9.821091a36.445091 36.445091 0 0 0-36.119272-36.119273l-523.170909 3.258182z" fill="#F4849A" p-id="6506"></path><path d="M742.213818 894.324364c-0.651636 0-0.651636 0 0 0l-435.2-2.653091a52.596364 52.596364 0 0 1-50.548363-38.725818l-43.985455-158.859637a51.665455 51.665455 0 0 1 36.770909-64.325818c4.608-1.303273 9.216-1.954909 13.777455-1.954909l522.519272-2.606546c13.777455 0 26.903273 5.259636 36.770909 15.080728 9.821091 9.867636 15.732364 22.993455 15.732364 36.770909 0 4.608-0.651636 9.169455-1.954909 13.777454l-43.985455 164.119273a51.153455 51.153455 0 0 1-49.896727 39.377455z m-478.487273-233.658182c-2.001455 0-3.304727 0-5.259636 0.605091-10.519273 2.653091-16.430545 13.777455-13.824 24.296727l43.985455 158.859636c2.653091 8.517818 9.867636 14.429091 19.083636 14.429091l434.501818 2.653091a19.688727 19.688727 0 0 0 19.083637-14.429091l43.938909-164.119272c0.651636-2.001455 0.651636-3.258182 0.651636-5.259637a17.873455 17.873455 0 0 0-5.911273-13.777454 21.876364 21.876364 0 0 0-13.777454-5.911273l-522.519273 2.606545z" fill="#222222" p-id="6507"></path><path d="M723.176727 20.014545a33.047273 33.047273 0 0 1 17.082182 43.287273L621.381818 342.248727a33.047273 33.047273 0 0 1-43.287273 17.082182 33.047273 33.047273 0 0 1-17.082181-43.287273L679.842909 37.003636a33.047273 33.047273 0 0 1 43.333818-17.082181z" fill="#FFFFFF" p-id="6508"></path><path d="M591.266909 378.414545a49.198545 49.198545 0 0 1-45.288727-68.282181L664.715636 30.440727c10.519273-24.948364 39.377455-36.770909 64.325819-26.251636 24.948364 10.472727 36.770909 39.377455 26.251636 64.325818l-118.784 280.296727a49.338182 49.338182 0 0 1-45.288727 29.509819zM710.050909 33.698909a16.570182 16.570182 0 0 0-15.080727 9.867636L576.139636 322.56a17.221818 17.221818 0 0 0 8.564364 21.690182 17.221818 17.221818 0 0 0 21.643636-8.564364l118.784-279.598545a13.917091 13.917091 0 0 0 0-12.474182c-1.954909-3.956364-4.561455-7.214545-8.517818-8.564364-1.954909-1.303273-4.608-1.303273-6.516363-1.303272z" fill="#282828" p-id="6509"></path><path d="M307.013818 223.418182h433.245091c28.858182 0 52.503273 23.691636 52.503273 52.596363v52.456728c0 28.858182-23.645091 52.549818-52.503273 52.549818H307.013818c-28.858182 0-52.503273-23.645091-52.503273-52.549818V276.014545c0-28.858182 23.645091-52.503273 52.503273-52.503272z" fill="#B68775" p-id="6510"></path><path d="M740.258909 397.405091H307.013818a68.887273 68.887273 0 0 1-68.887273-68.887273V275.921455c0-38.074182 30.813091-68.887273 68.887273-68.887273h433.245091c38.074182 0 68.887273 30.813091 68.887273 68.887273v52.503272a68.887273 68.887273 0 0 1-68.887273 68.933818zM307.013818 239.848727a36.445091 36.445091 0 0 0-36.072727 36.119273v52.503273c0 19.688727 16.384 36.119273 36.072727 36.119272h433.245091a36.445091 36.445091 0 0 0 36.072727-36.119272V276.014545a36.445091 36.445091 0 0 0-36.072727-36.119272H307.013818z" fill="#222222" p-id="6511"></path><path d="M208.523636 295.656727h630.225455c28.858182 0 52.456727 23.645091 52.456727 52.503273v65.629091c0 28.904727-23.598545 52.549818-52.503273 52.549818H208.570182c-28.858182 0-52.503273-23.645091-52.503273-52.503273V348.16c0-28.904727 23.598545-52.549818 52.503273-52.549818z" fill="#B68775" p-id="6512"></path><path d="M838.749091 482.722909H208.523636A68.887273 68.887273 0 0 1 139.636364 413.835636V348.16C139.636364 310.039273 170.496 279.272727 208.523636 279.272727h630.225455c38.027636 0 68.887273 30.813091 68.887273 68.887273v65.629091a68.887273 68.887273 0 0 1-68.887273 68.933818zM208.523636 312.087273a36.445091 36.445091 0 0 0-36.072727 36.072727v65.629091c0 19.735273 16.430545 36.119273 36.119273 36.119273h630.132363a36.445091 36.445091 0 0 0 36.119273-36.072728V348.16a36.445091 36.445091 0 0 0-36.119273-36.119273H208.570182z" fill="#222222" p-id="6513"></path><path d="M213.178182 421.050182a16.849455 16.849455 0 0 1-16.430546-14.429091c-3.258182-29.556364 0-48.593455 9.821091-60.416a34.257455 34.257455 0 0 1 25.6-11.170909h69.585455a16.290909 16.290909 0 0 1 16.430545 16.430545 16.290909 16.290909 0 0 1-16.430545 16.384H231.517091s-5.213091 5.259636-1.954909 34.164364c1.303273 9.169455-5.259636 17.035636-14.429091 18.385454-0.651636 0.651636-1.303273 0.651636-2.001455 0.651637z" fill="#2B2B2B" p-id="6514"></path><path d="M336.523636 348.16a16.430545 16.430545 0 1 0 32.861091 0 16.430545 16.430545 0 0 0-32.814545 0z" fill="#2C2C2C" p-id="6515"></path></svg>