<!--
  -  Copyright (c) 2025 Huawei Device Co., Ltd.
  -  Licensed under the Apache License, Version 2.0 (the "License");
  -  you may not use this file except in compliance with the License.
  -  You may obtain a copy of the License at
  -
  -      http://www.apache.org/licenses/LICENSE-2.0
  -
  -  Unless required by applicable law or agreed to in writing, software
  -  distributed under the License is distributed on an "AS IS" BASIS,
  -  WITHOUT WARRANTIES OR CONDITIONS OF ANY KIND, either express or implied.
  -  See the License for the specific language governing permissions and
  -  limitations under the License.
  -->

<svg width="40.000000" height="40.000000" viewBox="0 0 40 40" fill="none" xmlns="http://www.w3.org/2000/svg" xmlns:xlink="http://www.w3.org/1999/xlink">
	<desc>
			Created with Pixso.
	</desc>
	<defs>
		<clipPath id="clip2_1933">
			<rect id="svg" width="40.000000" height="40.000000" fill="white" fill-opacity="0"/>
		</clipPath>
	</defs>
	<g clip-path="url(#clip2_1933)">
		<g opacity="0.000000">
			<rect id="rect" width="40.000000" height="40.000000" fill="#000000" fill-opacity="1.000000"/>
		</g>
		<mask id="mask2_1937" mask-type="alpha" maskUnits="userSpaceOnUse" x="0.000000" y="0.000000" width="40.000000" height="41.166672">
			<rect id="rect" width="40.000000" height="40.000000" fill="#FFFFFF" fill-opacity="1.000000"/>
			<path id="path" d="M37 26.08C36.14 25.22 35.18 24.57 34.11 24.13C33.05 23.7 31.93 23.48 30.76 23.48C29.58 23.48 28.45 23.71 27.36 24.16C26.26 24.61 25.3 25.25 24.48 26.08C23.36 27.2 22.6 28.52 22.2 30.03C21.8 31.55 21.8 33.07 22.2 34.59C22.6 36.12 23.36 37.44 24.48 38.56C25.3 39.38 26.26 40.02 27.36 40.48C28.45 40.93 29.58 41.16 30.76 41.16C31.93 41.16 33.05 40.94 34.11 40.5C35.18 40.05 36.14 39.41 37 38.56C38.12 37.44 38.88 36.12 39.28 34.59C39.68 33.07 39.68 31.55 39.28 30.03C38.88 28.52 38.12 27.2 37 26.08Z" fill="#000000" fill-opacity="1.000000" fill-rule="nonzero"/>
		</mask>
		<g mask="url(#mask2_1937)">
			<path id="path" d="M21.6 2.48C21.08 2.23 20.56 2.11 20.03 2.11C19.5 2.11 18.96 2.23 18.43 2.48L6.48 8.03C5.87 8.3 5.38 8.71 5.03 9.28C4.68 9.83 4.51 10.46 4.51 11.16L4.51 19.11C4.51 22.05 5.13 24.85 6.36 27.53C7.58 30.22 9.29 32.53 11.5 34.48C13.7 36.42 16.21 37.82 19.03 38.68C19.7 38.83 20.35 38.83 21 38.68C23.85 37.82 26.37 36.43 28.56 34.5C30.74 32.56 32.44 30.27 33.66 27.61C34.87 24.96 35.48 22.14 35.48 19.16L35.48 11.16C35.48 10.46 35.3 9.84 34.93 9.3C34.57 8.75 34.1 8.35 33.51 8.08L21.6 2.48ZM20.31 36.28C20.1 36.33 19.92 36.33 19.76 36.28C18.03 35.75 16.42 34.97 14.93 33.96C13.45 32.94 12.15 31.74 11.03 30.36C11.67 29.07 12.6 28.06 13.8 27.31C15 26.57 16.32 26.2 17.76 26.2L22.2 26.2C23.64 26.2 24.97 26.59 26.2 27.38C27.42 28.17 28.34 29.21 28.96 30.51C27.86 31.88 26.58 33.05 25.11 34.03C23.65 35.02 22.05 35.77 20.31 36.28ZM33 19.16C33 20.81 32.78 22.39 32.36 23.91C31.93 25.43 31.31 26.87 30.51 28.23C29.58 26.82 28.38 25.71 26.91 24.9C25.45 24.08 23.87 23.68 22.2 23.68L17.76 23.68C16.11 23.68 14.55 24.08 13.08 24.88C11.61 25.68 10.41 26.76 9.48 28.11C8.68 26.76 8.06 25.32 7.63 23.8C7.21 22.27 7 20.73 7 19.16L7 11.16C7 10.76 7.18 10.48 7.56 10.31L19.48 4.76C19.85 4.6 20.21 4.6 20.56 4.76L32.48 10.36C32.63 10.41 32.76 10.51 32.86 10.68C32.95 10.83 33 11.01 33 11.2L33 19.16ZM19.96 9.6C18.81 9.6 17.74 9.88 16.76 10.46C15.77 11.03 14.99 11.81 14.41 12.8C13.85 13.78 13.56 14.85 13.56 16C13.56 17.14 13.85 18.21 14.41 19.2C14.99 20.18 15.77 20.96 16.76 21.53C17.74 22.11 18.81 22.4 19.96 22.4C21.13 22.4 22.2 22.11 23.18 21.53C24.15 20.96 24.92 20.18 25.5 19.2C26.07 18.21 26.36 17.14 26.36 16C26.36 14.85 26.07 13.78 25.5 12.8C24.92 11.81 24.15 11.03 23.18 10.46C22.2 9.88 21.13 9.6 19.96 9.6ZM19.96 19.88C18.9 19.88 17.98 19.5 17.21 18.73C16.46 17.97 16.08 17.06 16.08 16C16.08 14.91 16.46 13.98 17.21 13.21C17.98 12.46 18.9 12.08 19.96 12.08C21.05 12.08 21.97 12.46 22.73 13.21C23.5 13.98 23.88 14.91 23.88 16C23.88 17.06 23.5 17.97 22.73 18.73C21.97 19.5 21.05 19.88 19.96 19.88Z" fill="#0A59F7" fill-opacity="1.000000" fill-rule="nonzero"/>
		</g>
		<path id="path" d="M30.76 32.28L30.76 27.83C31.98 27.83 33.03 28.26 33.91 29.13C34.79 30 35.23 31.05 35.23 32.28L30.76 32.28L30.71 36.8C29.49 36.77 28.45 36.32 27.58 35.43C26.71 34.55 26.28 33.5 26.28 32.28L30.76 32.28ZM35.48 27.6C34.83 26.95 34.11 26.46 33.3 26.13C32.48 25.8 31.64 25.63 30.76 25.63C29.87 25.63 29.02 25.8 28.2 26.13C27.37 26.46 26.65 26.95 26.03 27.6C25.18 28.45 24.61 29.45 24.31 30.6C24.02 31.74 24.02 32.88 24.31 34.03C24.61 35.18 25.18 36.18 26.03 37.03C26.67 37.67 27.4 38.16 28.21 38.5C29.02 38.83 29.87 39 30.76 39C31.61 39 32.44 38.83 33.26 38.5C34.07 38.16 34.81 37.67 35.48 37.03C36.33 36.18 36.91 35.18 37.2 34.03C37.48 32.88 37.48 31.74 37.2 30.6C36.91 29.45 36.33 28.45 35.48 27.6Z" fill="#0A59F7" fill-opacity="1.000000" fill-rule="nonzero"/>
	</g>
</svg>
