<?xml version="1.0" standalone="no"?><!DOCTYPE svg PUBLIC "-//W3C//DTD SVG 1.1//EN" "http://www.w3.org/Graphics/SVG/1.1/DTD/svg11.dtd"><svg t="1755678348635" class="icon" viewBox="0 0 1024 1024" version="1.1" xmlns="http://www.w3.org/2000/svg" p-id="4964" xmlns:xlink="http://www.w3.org/1999/xlink" width="200" height="200"><path d="M289 881.2c-55.9 0-101.4-45.5-101.4-101.4 0-55.9 45.5-101.4 101.4-101.4s101.4 45.5 101.4 101.4c0 55.9-45.5 101.4-101.4 101.4z m0-161.6c-33.2 0-60.2 27-60.2 60.1 0 33.2 27 60.1 60.2 60.1s60.2-27 60.2-60.1c-0.1-33.1-27.1-60.1-60.2-60.1zM566.2 881.2c-55.9 0-101.4-45.5-101.4-101.4 0-55.9 45.5-101.4 101.4-101.4s101.4 45.5 101.4 101.4c0 55.9-45.5 101.4-101.4 101.4z m0-161.6c-33.2 0-60.2 27-60.2 60.1 0 33.2 27 60.1 60.2 60.1s60.2-27 60.2-60.1c-0.1-33.1-27.1-60.1-60.2-60.1zM648.4 640.8H198.3L86.9 250.6h567.2l45.7-107.7h163.5c40.7 0 73.8 33.4 73.8 74.5 0 41-33.1 74.3-73.8 74.3-5.1 0-47.7 0.1-70.2 0.2L648.4 640.8z m-419-41.3h391.4l144.7-348.9h13.7s77.1-0.2 84-0.2c17.9 0 32.6-14.8 32.6-33 0-18-14.9-33.2-32.6-33.2H727l-45.7 107.7H141.6l87.8 307.6z" p-id="4965"></path></svg>